<?xml version="1.0" encoding="iso-8859-1"?>
<!-- Generator: Adobe Illustrator 19.0.0, SVG Export Plug-In . SVG Version: 6.00 Build 0)  -->
<svg version="1.1" id="Layer_1" xmlns="http://www.w3.org/2000/svg" xmlns:xlink="http://www.w3.org/1999/xlink" x="0px" y="0px"
	 viewBox="0 0 511.999 511.999" style="enable-background:new 0 0 511.999 511.999;" xml:space="preserve">
<g>
	<g>
		<path d="M450.762,192.001l-24.828-9.849v-53.148c0-7.336-5.465-13.524-12.746-14.431c-9.884-1.23-18.831-5.604-25.875-12.644
			c-11.361-11.361-15.695-28.045-11.309-43.536c1.434-5.069,0.016-10.518-3.71-14.243c-3.726-3.724-9.173-5.143-14.243-3.71
			c-15.491,4.386-32.174,0.054-43.536-11.307c-5.223-5.225-9.086-11.7-11.169-18.725C301.517,4.234,295.844,0,289.405,0H96.482
			c-8.03,0-14.542,6.512-14.542,14.542v31.159l-9.98-3.96c-4.479-1.78-9.547-1.22-13.532,1.486
			c-3.986,2.706-6.372,7.211-6.372,12.029v166.147v276.054c0,8.03,6.512,14.542,14.542,14.542h378.486
			c8.03,0,14.541-6.512,14.541-14.542V221.551l0.314-15.743C460.06,199.742,456.401,194.239,450.762,192.001z M111.024,29.083
			h168.419c3.602,7.617,8.513,14.619,14.51,20.614c13.787,13.785,32.297,21.322,51.292,21.504
			c0.183,18.996,7.72,37.505,21.505,51.292c8.55,8.549,18.795,14.723,30.101,18.212v29.91L208.084,95.738l-97.06-38.503V29.083z
			 M81.139,186.131h125.537c8.03,0,14.542-6.512,14.542-14.542c0-8.03-6.512-14.541-14.542-14.541H81.139V76.67L394.36,200.917
			l11.67,4.63l3.318,1.316H81.139V186.131z M430.542,482.917H81.139V235.946h349.403V482.917z"/>
	</g>
</g>
<g>
	<g>
		<path d="M361.251,317.08c-1.812-33.885-29.212-60.427-62.377-60.427c-19.026,0-34.741,10.998-44.824,20.588
			c-9.974-9.596-25.637-20.588-45.051-20.588c-33.165,0-60.562,26.543-62.376,60.429c-1.095,20.476,6.791,35.004,12.818,44.154
			c8.252,12.522,28.392,31.213,44.487,44.53c35.963,29.756,45.868,29.756,50.097,29.756c4.281,0,14.309,0,50.088-29.707
			c15.972-13.262,36.008-31.94,44.33-44.596C354.466,352.055,362.347,337.509,361.251,317.08z M324.145,345.243
			c-10.862,16.515-56.204,54.512-70.084,60.715c-14.001-6.294-59.524-44.321-70.333-60.725c-6.151-9.333-8.562-17.288-8.065-26.599
			c0.971-18.141,15.924-32.897,33.335-32.897c14.972,0,28.798,15.607,32.827,21.574c2.657,4.002,7.117,6.433,11.918,6.499
			c0.067,0.001,0.132,0.001,0.198,0.001c4.729,0,9.167-2.3,11.893-6.173c3.997-5.681,18.648-21.901,33.04-21.901
			c17.412,0,32.366,14.757,33.338,32.899C332.717,328.047,330.379,335.757,324.145,345.243z"/>
	</g>
</g>
<g>
	<g>
		<path d="M264.316,168.75c-0.189-0.932-0.465-1.848-0.829-2.719c-0.364-0.887-0.814-1.73-1.338-2.516
			c-0.522-0.8-1.133-1.541-1.802-2.21c-2.705-2.705-6.456-4.261-10.281-4.261c-3.824,0-7.576,1.555-10.281,4.261
			c-0.669,0.669-1.28,1.411-1.803,2.21c-0.537,0.785-0.974,1.629-1.338,2.516c-0.364,0.872-0.653,1.787-0.843,2.719
			c-0.189,0.931-0.275,1.89-0.275,2.836c0,3.824,1.556,7.576,4.261,10.279c0.666,0.67,1.408,1.281,2.209,1.819
			c0.785,0.523,1.629,0.974,2.501,1.323c0.887,0.364,1.803,0.654,2.734,0.829c0.931,0.189,1.89,0.291,2.836,0.291
			c0.944,0,1.905-0.102,2.836-0.291c0.931-0.174,1.847-0.465,2.719-0.829c0.886-0.349,1.729-0.8,2.514-1.323
			c0.8-0.538,1.543-1.149,2.212-1.818c0.669-0.669,1.28-1.411,1.802-2.21c0.523-0.785,0.974-1.629,1.338-2.503
			c0.364-0.886,0.64-1.802,0.829-2.718c0.189-0.945,0.291-1.906,0.291-2.85C264.606,170.64,264.505,169.679,264.316,168.75z"/>
	</g>
</g>
<g>
</g>
<g>
</g>
<g>
</g>
<g>
</g>
<g>
</g>
<g>
</g>
<g>
</g>
<g>
</g>
<g>
</g>
<g>
</g>
<g>
</g>
<g>
</g>
<g>
</g>
<g>
</g>
<g>
</g>
</svg>
